<?xml version="1.0" standalone="no"?>
<!DOCTYPE svg PUBLIC "-//W3C//DTD SVG 20010904//EN"
 "http://www.w3.org/TR/2001/REC-SVG-20010904/DTD/svg10.dtd">
<svg version="1.0" xmlns="http://www.w3.org/2000/svg"
 width="130.000000pt" height="130.000000pt" viewBox="0 0 130.000000 130.000000"
 preserveAspectRatio="xMidYMid meet">
<metadata>
Created by potrace 1.11, written by Peter Selinger 2001-2013
</metadata>
<g transform="translate(0.000000,130.000000) scale(0.100000,-0.100000)"
fill="#000000" stroke="none">
<path d="M510 1274 c-234 -50 -436 -254 -485 -489 -95 -454 306 -855 760 -760
238 50 440 252 490 490 95 456 -309 857 -765 759z m228 -363 c46 -23 67 -46
87 -94 25 -61 19 -105 -28 -203 -24 -49 -52 -114 -62 -144 -23 -73 -40 -90
-85 -90 -45 0 -62 17 -85 90 -10 30 -38 95 -62 144 -48 101 -54 147 -24 211
20 43 40 64 86 88 42 22 127 21 173 -2z"/>
<path d="M600 893 c-67 -27 -117 -108 -104 -166 4 -18 21 -60 37 -94 l31 -63
86 0 86 0 31 63 c44 89 48 118 25 170 -25 56 -71 89 -131 93 -25 2 -53 1 -61
-3z m54 -50 c4 -4 -8 -12 -26 -18 -24 -8 -39 -23 -55 -56 -22 -43 -22 -44 -23
-13 0 21 9 38 28 56 35 33 62 44 76 31z"/>
<path d="M587 514 c4 -12 16 -14 62 -8 84 10 86 24 3 24 -60 0 -70 -2 -65 -16z"/>
<path d="M610 480 c-11 -7 -12 -12 -3 -21 16 -16 93 -2 93 17 0 16 -66 20 -90
4z"/>
<path d="M632 433 c-6 -2 -10 -9 -6 -14 8 -14 40 -11 54 6 10 13 9 15 -11 14
-13 0 -30 -3 -37 -6z"/>
</g>
</svg>
